# ProBuilder 5.1.1
# https://unity3d.com/unity/features/worldbuilding/probuilder
# 15.11.2023 13:27:16

mtllib ./HalfCylinder.mtl
o HalfCylinder

g Cylinder
v -1 -0.5 0
v -0.9914449 -0.5 0.1305262
v 0 -0.5 0
v -0.9659258 -0.5 0.2588191
v -0.9238795 -0.5 0.3826835
v -0.8660253 -0.5 0.5
v -0.7933532 -0.5 0.6087614
v -0.7071067 -0.5 0.7071068
v -0.6087614 -0.5 0.7933533
v -0.4999999 -0.5 0.8660254
v -0.3826834 -0.5 0.9238795
v -0.258819 -0.5 0.9659258
v -0.1305262 -0.5 0.9914448
v 0 -0.5 1
v -0.9914449 0.5 0.1305262
v -1 0.5 0
v 0 0.5 0
v -0.9659258 0.5 0.2588191
v -0.9238795 0.5 0.3826835
v -0.8660253 0.5 0.5
v -0.7933532 0.5 0.6087614
v -0.7071067 0.5 0.7071068
v -0.6087614 0.5 0.7933533
v -0.4999999 0.5 0.8660254
v -0.3826834 0.5 0.9238795
v -0.258819 0.5 0.9659258
v -0.1305262 0.5 0.9914448
v 0 0.5 1

vt -1 0
vt -0.9914449 0.1305262
vt 0 0
vt -0.9659258 0.2588191
vt -0.9238795 0.3826835
vt -0.8660253 0.5
vt -0.7933532 0.6087614
vt -0.7071067 0.7071068
vt -0.6087614 0.7933533
vt -0.4999999 0.8660254
vt -0.3826834 0.9238795
vt -0.258819 0.9659258
vt -0.1305262 0.9914448
vt 0 1
vt 0.9914449 0.1305262
vt 1 0
vt 0.9659258 0.2588191
vt 0.9238795 0.3826835
vt 0.8660253 0.5
vt 0.7933532 0.6087614
vt 0.7071067 0.7071068
vt 0.6087614 0.7933533
vt 0.4999999 0.8660254
vt 0.3826834 0.9238795
vt 0.258819 0.9659258
vt 0.1305262 0.9914448
vt -0.4472136 -0.5
vt -0.4472136 0.5
vt 0 -0.5
vt 0 0.5
vt 0.8944274 0.5
vt 0.8944274 -0.5
vt 0.06540285 0.5
vt -0.06540341 -0.5
vt -0.06540341 0.5
vt 0.06540285 -0.5

vn 0 -1 0
vn 0 1 0
vn 1 0 0
vn 0 0 -1
vn -0.9914449 0 0.1305262
vn -0.9978589 0 0.06540294
vn -0.9659258 0 0.2588192
vn -0.9238794 0 0.3826837
vn -0.8660251 0 0.5000004
vn -0.7933534 0 0.6087614
vn -0.7071069 0 0.7071066
vn -0.6087613 0 0.7933534
vn -0.4999999 0 0.8660255
vn -0.3826835 0 0.9238795
vn -0.258819 0 0.9659258
vn -0.1305263 0 0.9914449
vn -0.06540339 0 0.9978589

usemtl CylinderMat
f 3/3/1 7/7/1 6/6/1
f 3/3/1 10/10/1 9/9/1
f 3/3/1 11/11/1 10/10/1
f 3/3/1 14/14/1 13/13/1
f 17/3/2 20/19/2 21/20/2
f 17/3/2 27/26/2 28/14/2
f 4/4/1 2/2/1 1/1/1
f 1/1/1 3/3/1 4/4/1
f 6/6/1 5/5/1 4/4/1
f 4/4/1 3/3/1 6/6/1
f 9/9/1 8/8/1 7/7/1
f 7/7/1 3/3/1 9/9/1
f 13/13/1 12/12/1 11/11/1
f 11/11/1 3/3/1 13/13/1
f 17/3/2 16/16/2 15/15/2
f 15/15/2 18/17/2 17/3/2
f 17/3/2 18/17/2 19/18/2
f 19/18/2 20/19/2 17/3/2
f 17/3/2 21/20/2 22/21/2
f 22/21/2 23/22/2 17/3/2
f 17/3/2 23/22/2 24/23/2
f 24/23/2 25/24/2 17/3/2
f 17/3/2 25/24/2 26/25/2
f 26/25/2 27/26/2 17/3/2
f 17/30/3 28/28/3 14/27/3
f 14/27/3 3/29/3 17/30/3
f 1/32/4 16/31/4 17/30/4
f 17/30/4 3/29/4 1/32/4
f 15/33/5 16/35/6 1/34/6
f 1/34/6 2/36/5 15/33/5
f 18/33/7 15/35/5 2/34/5
f 2/34/5 4/36/7 18/33/7
f 19/33/8 18/35/7 4/34/7
f 4/34/7 5/36/8 19/33/8
f 20/33/9 19/35/8 5/34/8
f 5/34/8 6/36/9 20/33/9
f 21/33/10 20/35/9 6/34/9
f 6/34/9 7/36/10 21/33/10
f 22/33/11 21/35/10 7/34/10
f 7/34/10 8/36/11 22/33/11
f 23/33/12 22/35/11 8/34/11
f 8/34/11 9/36/12 23/33/12
f 24/33/13 23/35/12 9/34/12
f 9/34/12 10/36/13 24/33/13
f 25/33/14 24/35/13 10/34/13
f 10/34/13 11/36/14 25/33/14
f 26/33/15 25/35/14 11/34/14
f 11/34/14 12/36/15 26/33/15
f 27/33/16 26/35/15 12/34/15
f 12/34/15 13/36/16 27/33/16
f 28/33/17 27/35/16 13/34/16
f 13/34/16 14/36/17 28/33/17

